<?xml version="1.0" standalone="no"?>
<!DOCTYPE svg PUBLIC "-//W3C//DTD SVG 20010904//EN"
 "http://www.w3.org/TR/2001/REC-SVG-20010904/DTD/svg10.dtd">
<svg version="1.0" xmlns="http://www.w3.org/2000/svg"
 width="181.000000pt" height="1302.000000pt" viewBox="0 0 181.000000 1302.000000"
 preserveAspectRatio="xMidYMid meet">

<g transform="translate(0.000000,1302.000000) scale(0.100000,-0.100000)"
fill="#000000" stroke="none">
<path d="M1474 12979 c-10 -17 13 -36 27 -22 12 12 4 33 -11 33 -5 0 -12 -5
-16 -11z"/>
<path d="M1474 12909 c-10 -17 13 -36 27 -22 12 12 4 33 -11 33 -5 0 -12 -5
-16 -11z"/>
<path d="M1474 12839 c-10 -17 13 -36 27 -22 12 12 4 33 -11 33 -5 0 -12 -5
-16 -11z"/>
<path d="M1380 12722 c0 -4 5 -13 12 -20 8 -8 8 -15 -2 -27 -21 -25 -2 -31 22
-7 21 21 21 22 3 42 -19 20 -35 26 -35 12z"/>
<path d="M1216 11825 c-3 -8 -15 -15 -26 -15 -28 0 -25 -29 5 -40 14 -5 25
-14 25 -20 0 -5 7 -10 15 -10 25 0 17 27 -10 34 -14 4 -25 11 -25 16 0 5 11
12 25 16 14 3 25 12 25 20 0 19 -26 18 -34 -1z"/>
<path d="M50 11810 c0 -5 5 -10 10 -10 6 0 10 5 10 10 0 6 -4 10 -10 10 -5 0
-10 -4 -10 -10z"/>
<path d="M676 11774 c-9 -26 -16 -49 -16 -50 0 -1 12 -5 26 -8 20 -5 24 -10
15 -19 -13 -13 -15 -47 -2 -47 5 0 11 3 13 8 2 4 20 20 41 35 32 24 37 34 37
67 0 45 -1 45 -56 55 l-42 6 -16 -47z"/>
<path d="M800 11760 c0 -29 4 -40 15 -40 11 0 15 11 15 40 0 29 -4 40 -15 40
-11 0 -15 -11 -15 -40z"/>
<path d="M50 11770 c0 -11 5 -20 10 -20 6 0 10 9 10 20 0 11 -4 20 -10 20 -5
0 -10 -9 -10 -20z"/>
<path d="M496 11773 c10 -7 21 -13 24 -13 3 0 14 6 24 13 15 11 12 12 -24 12
-36 0 -39 -1 -24 -12z"/>
<path d="M985 11771 c-3 -6 0 -8 9 -5 8 3 16 -1 19 -10 4 -14 5 -14 3 0 -1 20
-21 30 -31 15z"/>
<path d="M894 11720 l1 -55 105 0 105 0 2 55 c1 31 -1 46 -5 34 -4 -13 -14
-20 -24 -18 -12 1 -18 -4 -18 -17 0 -17 -8 -19 -59 -19 -50 0 -59 3 -64 20 -3
13 -11 18 -20 14 -11 -4 -17 2 -20 18 -3 13 -4 -2 -3 -32z"/>
<path d="M480 11751 c0 -14 36 -23 60 -16 11 3 20 11 20 16 0 6 -8 6 -20 -1
-14 -8 -26 -8 -40 0 -12 7 -20 7 -20 1z"/>
<path d="M233 11663 c26 -2 68 -2 95 0 26 2 4 3 -48 3 -52 0 -74 -1 -47 -3z"/>
<path d="M19 11553 c-8 -21 -7 -30 4 -38 7 -5 12 -16 10 -22 -6 -18 8 -15 35
6 12 11 22 30 22 44 0 17 -7 27 -22 31 -35 9 -38 8 -49 -21z"/>
<path d="M190 11555 c0 -20 5 -25 25 -25 20 0 25 5 25 25 0 20 -5 25 -25 25
-20 0 -25 -5 -25 -25z"/>
<path d="M250 11555 c0 -20 5 -25 25 -25 20 0 25 5 25 25 0 20 -5 25 -25 25
-20 0 -25 -5 -25 -25z"/>
<path d="M112 11540 c0 -14 2 -19 5 -12 2 6 2 18 0 25 -3 6 -5 1 -5 -13z"/>
<path d="M190 11495 c0 -20 5 -25 25 -25 20 0 25 5 25 25 0 20 -5 25 -25 25
-20 0 -25 -5 -25 -25z"/>
<path d="M250 11495 c0 -20 5 -25 25 -25 20 0 25 5 25 25 0 20 -5 25 -25 25
-20 0 -25 -5 -25 -25z"/>
<path d="M1030 11385 c0 -8 -7 -15 -15 -15 -8 0 -15 -4 -15 -10 0 -5 7 -10 15
-10 8 0 15 -7 15 -15 0 -8 5 -15 10 -15 6 0 10 7 10 15 0 8 7 15 15 15 8 0 15
5 15 10 0 6 -7 10 -15 10 -8 0 -15 7 -15 15 0 8 -4 15 -10 15 -5 0 -10 -7 -10
-15z"/>
<path d="M65 11370 c-13 -14 -25 -18 -39 -14 -19 6 -19 5 -7 -10 13 -15 16
-15 43 10 15 15 28 29 28 31 0 7 -8 2 -25 -17z"/>
<path d="M224 11376 c-3 -9 -4 -23 0 -31 3 -8 -1 -18 -9 -22 -11 -7 -10 -12 6
-33 l19 -25 19 25 c11 13 16 27 11 30 -4 3 -10 18 -12 34 -3 33 -25 46 -34 22z"/>
<path d="M910 11377 c0 -11 -8 -17 -25 -17 -16 0 -25 -6 -25 -15 0 -9 9 -15
25 -15 17 0 25 -6 25 -17 0 -14 2 -14 20 2 11 10 20 23 20 30 0 7 -9 20 -20
30 -18 16 -20 16 -20 2z"/>
<path d="M656 11352 c-3 -5 6 -20 19 -32 l25 -24 -26 -27 c-14 -15 -21 -29
-16 -33 5 -3 20 6 32 19 l24 25 27 -26 c15 -14 29 -21 33 -16 3 5 -6 20 -19
32 l-25 24 26 27 c14 15 21 29 16 33 -5 3 -20 -6 -32 -19 l-24 -25 -27 26
c-15 14 -29 21 -33 16z"/>
<path d="M153 11228 c2 -9 29 -13 87 -13 58 0 85 4 88 13 3 9 -19 12 -88 12
-69 0 -91 -3 -87 -12z"/>
<path d="M12 11140 c-11 -18 -9 -20 14 -20 24 0 25 2 13 18 -7 9 -14 18 -14
19 0 1 -6 -7 -13 -17z"/>
<path d="M145 11100 l-49 -50 49 -50 c49 -50 49 -50 69 -30 20 20 20 20 -9 50
l-29 30 32 33 c31 32 32 34 14 50 -10 9 -21 17 -23 17 -3 0 -27 -22 -54 -50z"/>
<path d="M1712 11048 c-50 -51 -51 -52 -72 -33 -30 27 -34 13 -5 -15 l26 -24
56 57 c32 31 55 59 52 61 -3 3 -28 -18 -57 -46z"/>
<path d="M130 10720 l0 -51 40 23 c22 13 40 25 40 28 0 3 -18 15 -40 28 l-40
23 0 -51z"/>
<path d="M885 10471 c-35 -5 -42 -11 -52 -41 -7 -19 -12 -64 -12 -100 0 -36 5
-81 12 -100 11 -31 17 -36 57 -42 25 -3 88 -7 140 -7 52 0 115 4 140 7 40 6
46 11 57 42 7 19 12 64 12 100 0 36 -5 81 -12 100 -11 31 -17 36 -57 42 -54 8
-230 8 -285 -1z m65 -56 c0 -8 -7 -15 -15 -15 -12 0 -15 -16 -15 -80 0 -64 -3
-80 -15 -80 -12 0 -15 16 -15 80 0 64 -3 80 -15 80 -8 0 -15 7 -15 15 0 11 12
15 45 15 33 0 45 -4 45 -15z m110 -11 c0 -19 4 -25 14 -21 25 10 37 -19 34
-80 l-3 -58 -37 -2 -38 -2 0 94 c0 78 3 95 15 95 9 0 15 -10 15 -26z m121 -24
c13 -8 19 -21 19 -45 0 -31 -3 -35 -25 -35 -16 0 -25 -6 -25 -15 0 -8 5 -15
10 -15 6 0 10 5 10 10 0 6 7 10 16 10 10 0 14 -7 12 -22 -4 -30 -47 -37 -65
-12 -18 24 -16 85 3 112 17 25 19 26 45 12z m-211 -55 c0 -30 5 -55 10 -55 6
0 10 25 10 55 0 42 3 55 15 55 12 0 15 -14 15 -70 l0 -69 -37 2 -38 2 -3 68
c-2 55 0 67 13 67 12 0 15 -12 15 -55z"/>
<path d="M1060 10315 c0 -25 5 -45 10 -45 6 0 10 20 10 45 0 25 -4 45 -10 45
-5 0 -10 -20 -10 -45z"/>
<path d="M1156 10351 c-4 -7 -5 -15 -2 -18 9 -9 19 4 14 18 -4 11 -6 11 -12 0z"/>
<path d="M551 10369 c10 -33 19 -76 19 -95 0 -19 5 -34 10 -34 6 0 10 17 10
39 0 21 7 58 15 81 18 50 19 70 5 70 -6 0 -13 -13 -16 -30 -4 -16 -10 -30 -14
-30 -4 0 -10 14 -13 30 -4 17 -13 30 -21 30 -11 0 -11 -11 5 -61z"/>
<path d="M1270 10335 c0 -76 3 -95 14 -95 10 0 16 14 18 43 l3 42 13 -42 c7
-24 17 -43 22 -43 12 0 13 16 1 57 -6 20 -6 35 0 38 13 9 11 69 -3 83 -7 7
-25 12 -40 12 l-28 0 0 -95z m57 49 c3 -8 -2 -23 -11 -32 -15 -15 -16 -14 -16
16 0 33 16 43 27 16z"/>
<path d="M1510 10402 c0 -23 -4 -28 -22 -28 -22 1 -23 -3 -23 -64 l0 -64 33
-2 32 -2 0 94 c0 56 -4 94 -10 94 -5 0 -10 -13 -10 -28z m-5 -90 c0 -59 -19
-57 -23 2 -2 36 0 47 10 44 8 -3 13 -21 13 -46z"/>
<path d="M630 10361 c-24 -46 -5 -121 30 -121 24 0 40 28 40 70 0 42 -16 70
-40 70 -11 0 -24 -9 -30 -19z m40 -51 c0 -27 -4 -50 -10 -50 -5 0 -10 23 -10
50 0 28 5 50 10 50 6 0 10 -22 10 -50z"/>
<path d="M720 10311 l0 -69 35 1 35 1 0 68 c0 39 -4 68 -10 68 -5 0 -10 -20
-10 -44 0 -49 -7 -76 -21 -76 -5 0 -9 27 -9 60 0 33 -4 60 -10 60 -6 0 -10
-30 -10 -69z"/>
<path d="M1377 10373 c-14 -13 -7 -110 8 -123 17 -14 43 -7 51 15 9 23 -6 33
-17 12 -12 -21 -29 -13 -29 14 0 14 7 19 25 19 26 0 32 19 19 54 -6 16 -45 22
-57 9z m41 -31 c2 -7 -3 -12 -12 -12 -9 0 -16 7 -16 16 0 17 22 14 28 -4z"/>
<path d="M1363 10133 c-50 -7 -58 -25 -58 -134 0 -138 -6 -134 195 -134 201 0
195 -4 195 135 0 135 3 133 -167 136 -73 1 -147 0 -165 -3z m197 -127 c0 -5
-86 -56 -94 -56 -3 0 -6 25 -6 55 l0 55 50 -25 c28 -14 50 -27 50 -29z"/>
<path d="M739 10121 c7 -5 17 -15 22 -22 6 -10 9 -8 9 9 0 16 -6 22 -22 22
-17 0 -19 -3 -9 -9z"/>
<path d="M1123 10108 c-55 -27 -50 -114 8 -138 89 -37 151 99 63 139 -30 13
-42 13 -71 -1z m47 -28 c0 -5 -4 -10 -10 -10 -5 0 -10 5 -10 10 0 6 5 10 10
10 6 0 10 -4 10 -10z m0 -55 c0 -19 -4 -35 -10 -35 -5 0 -10 16 -10 35 0 19 5
35 10 35 6 0 10 -16 10 -35z"/>
<path d="M680 10075 c0 -33 2 -35 35 -35 30 0 35 3 34 23 -1 16 -2 18 -6 5 -3
-11 -14 -18 -29 -18 -19 0 -24 5 -24 24 0 15 7 26 18 29 13 4 11 5 -5 6 -20 1
-23 -4 -23 -34z"/>
<path d="M724 10088 l-19 -23 23 19 c21 18 27 26 19 26 -2 0 -12 -10 -23 -22z"/>
<path d="M940 10090 c0 -13 -11 -25 -33 -34 -31 -13 -56 -40 -70 -78 -5 -15
-2 -15 26 2 39 24 74 26 79 4 2 -11 11 -7 35 18 l32 33 -35 37 c-28 31 -34 34
-34 18z"/>
<path d="M325 9775 c-50 -49 -15 -135 55 -135 41 0 80 39 80 80 0 41 -39 80
-80 80 -19 0 -40 -9 -55 -25z m103 -17 c17 -17 15 -58 -5 -80 -34 -38 -103
-11 -103 42 0 34 8 42 30 30 12 -6 23 -5 36 5 23 18 27 18 42 3z"/>
<path d="M392 9699 c1 -30 1 -30 21 -11 20 21 16 42 -8 42 -9 0 -13 -11 -13
-31z"/>
<path d="M1046 9781 c-11 -12 -20 -43 -23 -80 l-6 -61 62 0 61 0 0 45 0 45
-45 0 c-48 0 -59 16 -29 41 14 11 19 10 34 -9 21 -25 30 -28 30 -9 0 18 -32
47 -52 47 -8 0 -23 -9 -32 -19z"/>
<path d="M524 9397 c-2 -7 -3 -78 -2 -157 l3 -145 155 0 155 0 0 155 0 155
-153 3 c-119 2 -154 0 -158 -11z m276 -56 c0 -13 -8 -21 -22 -23 -30 -4 -32
-43 -3 -43 13 0 21 -8 23 -22 3 -19 -1 -23 -23 -23 -26 0 -27 -1 -23 -57 3
-57 2 -58 -24 -61 -28 -3 -28 -3 -28 57 0 49 -3 61 -16 61 -10 0 -14 7 -12 23
2 12 9 21 16 20 7 -2 12 8 12 26 0 39 24 61 66 61 27 0 34 -4 34 -19z m-113
-206 c0 -12 -15 -15 -69 -15 -54 0 -68 3 -68 15 0 12 14 15 68 15 54 0 69 -3
69 -15z m123 0 c0 -8 -9 -15 -20 -15 -11 0 -20 7 -20 15 0 8 9 15 20 15 11 0
20 -7 20 -15z"/>
<path d="M1440 9355 c0 -33 -2 -35 -35 -35 -24 0 -35 -5 -35 -15 0 -10 11 -15
35 -15 33 0 35 -2 35 -35 0 -24 5 -35 15 -35 10 0 15 11 15 35 0 33 2 35 35
35 24 0 35 5 35 15 0 10 -11 15 -35 15 -33 0 -35 2 -35 35 0 24 -5 35 -15 35
-10 0 -15 -11 -15 -35z"/>
<path d="M280 9340 c0 -13 7 -20 20 -20 13 0 20 7 20 20 0 13 -7 20 -20 20
-13 0 -20 -7 -20 -20z"/>
<path d="M330 9340 c0 -18 7 -20 60 -20 53 0 60 2 60 20 0 18 -7 20 -60 20
-53 0 -60 -2 -60 -20z"/>
<path d="M280 9290 c0 -13 7 -20 20 -20 13 0 20 7 20 20 0 13 -7 20 -20 20
-13 0 -20 -7 -20 -20z"/>
<path d="M330 9290 c0 -18 7 -20 60 -20 53 0 60 2 60 20 0 18 -7 20 -60 20
-53 0 -60 -2 -60 -20z"/>
<path d="M280 9240 c0 -13 7 -20 20 -20 13 0 20 7 20 20 0 13 -7 20 -20 20
-13 0 -20 -7 -20 -20z"/>
<path d="M330 9240 c0 -18 7 -20 60 -20 53 0 60 2 60 20 0 18 -7 20 -60 20
-53 0 -60 -2 -60 -20z"/>
<path d="M1011 9043 c-1 -7 -8 -13 -16 -13 -8 0 -15 -6 -15 -14 0 -8 -6 -17
-12 -19 -10 -4 -10 -6 0 -6 6 -1 12 -8 12 -16 0 -8 6 -15 14 -15 8 0 17 -6 19
-12 4 -10 6 -10 6 0 1 6 8 12 16 12 8 0 15 6 15 14 0 8 6 17 13 19 10 4 10 6
0 6 -7 1 -13 8 -13 16 0 8 -6 15 -14 15 -8 0 -17 6 -19 13 -4 10 -6 10 -6 0z
m18 -59 c-9 -11 -15 -12 -25 -3 -11 9 -12 15 -3 25 9 11 15 12 25 3 11 -9 12
-15 3 -25z"/>
<path d="M40 9010 c-11 -11 -20 -29 -20 -40 0 -26 34 -60 60 -60 26 0 60 34
60 60 0 26 -34 60 -60 60 -11 0 -29 -9 -40 -20z m78 -12 c17 -17 15 -38 -5
-60 -21 -23 -45 -23 -67 1 -23 25 -17 56 11 56 12 0 25 3 29 8 10 10 18 9 32
-5z"/>
<path d="M87 8974 c-3 -3 -3 -12 0 -20 4 -11 9 -12 19 -3 8 6 11 15 8 20 -6
10 -18 12 -27 3z"/>
<path d="M338 9023 c-1 -5 -20 -21 -40 -36 -33 -24 -38 -34 -38 -67 0 -45 1
-45 56 -55 l42 -6 16 47 c9 26 16 49 16 50 0 1 -12 5 -26 8 -20 5 -24 10 -15
19 13 13 15 47 2 47 -5 0 -11 -3 -13 -7z"/>
<path d="M1422 9022 c-16 -11 -32 -67 -32 -114 l0 -38 55 0 55 0 0 38 c0 70
-23 122 -55 122 -5 0 -16 -4 -23 -8z m48 -43 c0 -14 -7 -19 -25 -19 -18 0 -25
5 -25 19 0 11 6 21 13 24 20 7 37 -4 37 -24z"/>
<path d="M800 8990 c0 -13 -7 -20 -20 -20 -13 0 -20 -7 -20 -20 0 -13 7 -20
20 -20 13 0 20 -7 20 -20 0 -13 7 -20 20 -20 13 0 20 7 20 20 0 13 7 20 20 20
13 0 20 7 20 20 0 13 -7 20 -20 20 -13 0 -20 7 -20 20 0 13 -7 20 -20 20 -13
0 -20 -7 -20 -20z"/>
<path d="M570 8964 c-19 -19 -40 -32 -47 -29 -7 2 -10 -2 -6 -11 9 -23 27 -16
61 22 38 43 46 54 35 53 -4 -1 -24 -16 -43 -35z"/>
<path d="M220 8920 c0 -29 4 -40 15 -40 11 0 15 11 15 40 0 29 -4 40 -15 40
-11 0 -15 -11 -15 -40z"/>
<path d="M111 8786 c-8 -10 -27 -24 -43 -32 -24 -13 -28 -20 -28 -59 0 -32 4
-45 14 -45 7 0 27 -3 43 -6 28 -5 31 -3 47 37 18 44 12 58 -23 59 -11 0 -11 3
-1 15 6 8 10 22 8 31 -3 16 -4 16 -17 0z"/>
<path d="M737 8794 c-4 -4 -7 -13 -7 -21 0 -10 5 -11 19 -3 11 5 53 10 93 10
72 -1 73 -1 51 -19 -15 -12 -18 -22 -12 -32 15 -25 10 -57 -16 -87 -14 -17
-25 -34 -25 -38 0 -5 16 -22 36 -38 30 -23 35 -34 32 -58 l-5 -29 71 3 71 3 3
103 3 102 -26 0 c-21 0 -25 -5 -25 -30 0 -20 -5 -30 -15 -30 -10 0 -15 10 -15
30 0 27 -3 30 -30 30 -20 0 -30 5 -30 15 0 10 10 15 30 15 27 0 30 3 30 30 0
20 5 30 15 30 10 0 15 -10 15 -30 0 -26 4 -30 26 -30 23 0 25 3 22 38 l-3 37
-151 3 c-82 1 -153 -1 -157 -4z"/>
<path d="M210 8735 c0 -33 4 -45 15 -45 8 0 15 -7 15 -16 0 -15 2 -15 25 0 13
9 36 16 50 16 23 0 25 4 25 45 l0 45 -65 0 -65 0 0 -45z"/>
<path d="M470 8750 c0 -13 -7 -20 -20 -20 -11 0 -20 -4 -20 -10 0 -5 9 -10 20
-10 13 0 20 -7 20 -20 0 -11 5 -20 10 -20 6 0 10 9 10 20 0 13 7 20 20 20 11
0 20 5 20 10 0 6 -9 10 -20 10 -13 0 -20 7 -20 20 0 11 -4 20 -10 20 -5 0 -10
-9 -10 -20z"/>
<path d="M768 8749 c-46 -26 6 -134 52 -109 27 15 27 73 0 100 -23 23 -28 24
-52 9z"/>
<path d="M0 8695 c0 -33 4 -45 15 -45 11 0 15 12 15 45 0 33 -4 45 -15 45 -11
0 -15 -12 -15 -45z"/>
<path d="M730 8586 l0 -34 34 10 c25 8 32 15 29 28 -4 16 -30 29 -55 30 -5 0
-8 -15 -8 -34z"/>
<path d="M444 8545 c-9 -23 3 -45 26 -45 25 0 37 25 20 45 -16 19 -39 19 -46
0z"/>
<path d="M749 8532 c-14 -12 -20 -25 -16 -35 5 -14 21 -17 77 -17 76 0 78 2
37 48 -25 27 -67 29 -98 4z"/>
<path d="M1140 8505 c0 -8 7 -15 15 -15 8 0 15 7 15 15 0 8 -7 15 -15 15 -8 0
-15 -7 -15 -15z"/>
<path d="M1140 8455 c0 -8 7 -15 15 -15 8 0 15 7 15 15 0 8 -7 15 -15 15 -8 0
-15 -7 -15 -15z"/>
<path d="M1140 8405 c0 -8 7 -15 15 -15 8 0 15 7 15 15 0 8 -7 15 -15 15 -8 0
-15 -7 -15 -15z"/>
<path d="M1002 8330 c-11 -18 -9 -20 14 -20 24 0 25 2 13 18 -7 9 -14 18 -14
19 0 1 -6 -7 -13 -17z"/>
<path d="M535 8320 c-3 -5 -9 -32 -12 -60 l-6 -50 43 0 43 0 -6 50 c-7 60 -12
70 -37 70 -10 0 -22 -4 -25 -10z m41 -21 c10 -17 -13 -36 -27 -22 -12 12 -4
33 11 33 5 0 12 -5 16 -11z"/>
<path d="M1628 8307 c-2 -13 -3 -40 0 -60 4 -37 4 -37 52 -37 48 0 48 0 52 37
9 72 1 83 -52 83 -42 0 -48 -3 -52 -23z m92 -2 c0 -11 -11 -15 -40 -15 -29 0
-40 4 -40 15 0 11 11 15 40 15 29 0 40 -4 40 -15z m0 -60 c0 -22 -4 -25 -40
-25 -36 0 -40 3 -40 25 0 23 4 25 40 25 36 0 40 -2 40 -25z"/>
<path d="M1658 8303 c6 -2 18 -2 25 0 6 3 1 5 -13 5 -14 0 -19 -2 -12 -5z"/>
<path d="M1663 8253 c9 -2 23 -2 30 0 6 3 -1 5 -18 5 -16 0 -22 -2 -12 -5z"/>
<path d="M1663 8233 c9 -2 25 -2 35 0 9 3 1 5 -18 5 -19 0 -27 -2 -17 -5z"/>
<path d="M1450 8310 c0 -5 -9 -10 -20 -10 -13 0 -20 -7 -20 -19 0 -11 -6 -22
-12 -25 -10 -5 -10 -7 0 -12 6 -3 12 -14 12 -25 0 -12 7 -19 19 -19 11 0 22
-6 25 -12 5 -10 7 -10 12 0 3 6 14 12 25 12 12 0 19 7 19 19 0 11 6 22 13 25
10 5 10 7 0 12 -7 3 -13 14 -13 25 0 12 -7 19 -20 19 -11 0 -20 5 -20 10 0 6
-4 10 -10 10 -5 0 -10 -4 -10 -10z m35 -60 c0 -18 -6 -26 -23 -28 -13 -2 -25
3 -28 12 -10 26 4 48 28 44 17 -2 23 -10 23 -28z"/>
<path d="M1361 8079 l-23 -19 23 -19 c19 -16 25 -17 27 -5 5 20 62 19 62 -1 0
-8 5 -15 10 -15 6 0 10 11 10 25 0 22 -4 25 -39 25 -26 0 -41 5 -43 14 -2 12
-8 11 -27 -5z"/>
<path d="M1653 8093 c-7 -2 -13 -9 -13 -14 0 -6 8 -5 20 1 14 8 26 8 40 0 11
-6 20 -7 20 -1 0 17 -40 26 -67 14z"/>
<path d="M1656 8057 c-15 -11 -12 -12 24 -12 36 0 39 1 24 12 -10 7 -21 13
-24 13 -3 0 -14 -6 -24 -13z"/>
<path d="M570 8015 c0 -11 -11 -15 -40 -15 -36 0 -40 -2 -40 -25 0 -14 5 -25
10 -25 6 0 10 7 10 15 0 10 10 15 30 15 20 0 30 -5 30 -15 0 -14 3 -13 25 2
13 10 24 20 24 23 0 3 -11 13 -24 23 -22 15 -25 16 -25 2z"/>
<path d="M60 7890 c0 -32 1 -33 17 -17 16 16 16 18 0 34 -16 16 -17 15 -17
-17z"/>
<path d="M1659 7897 c7 -7 7 -15 1 -22 -7 -8 -1 -12 20 -12 21 0 27 4 20 12
-6 7 -6 15 1 22 6 6 0 10 -21 10 -21 0 -27 -4 -21 -10z"/>
<path d="M873 7574 c-27 -21 -33 -32 -33 -65 0 -32 4 -39 19 -39 11 0 26 -2
33 -5 9 -4 19 4 26 20 17 36 15 65 -3 65 -11 0 -14 7 -9 25 8 31 7 31 -33 -1z"/>
<path d="M810 7510 c0 -22 5 -40 10 -40 6 0 10 18 10 40 0 22 -4 40 -10 40 -5
0 -10 -18 -10 -40z"/>
<path d="M261 7343 l21 -37 -21 -38 -20 -38 59 0 60 0 -21 37 -21 37 21 38 20
38 -59 0 -60 0 21 -37z m69 8 c0 -5 -7 -14 -15 -21 -12 -10 -18 -10 -30 0 -23
19 -18 30 15 30 17 0 30 -4 30 -9z"/>
<path d="M1239 7344 c-12 -15 -8 -21 29 -52 l43 -35 -43 -44 c-40 -41 -41 -44
-25 -60 16 -17 20 -14 74 40 l58 57 -55 55 c-30 30 -57 55 -61 55 -4 0 -13 -7
-20 -16z"/>
<path d="M605 7011 c-35 -5 -42 -11 -52 -41 -7 -19 -12 -64 -12 -100 0 -36 5
-81 12 -100 11 -31 17 -36 57 -42 25 -3 88 -7 140 -7 52 0 115 4 140 7 40 6
46 11 57 42 15 45 15 155 0 200 -11 31 -17 36 -57 42 -54 8 -230 8 -285 -1z
m65 -56 c0 -8 -7 -15 -15 -15 -12 0 -15 -16 -15 -80 0 -64 -3 -80 -15 -80 -12
0 -15 16 -15 80 0 64 -3 80 -15 80 -8 0 -15 7 -15 15 0 11 12 15 45 15 33 0
45 -4 45 -15z m110 -11 c0 -19 4 -25 14 -21 25 10 37 -19 34 -80 l-3 -58 -37
-2 -38 -2 0 94 c0 78 3 95 15 95 9 0 15 -10 15 -26z m121 -24 c13 -8 19 -21
19 -45 0 -31 -3 -35 -25 -35 -16 0 -25 -6 -25 -15 0 -8 5 -15 10 -15 6 0 10 5
10 10 0 6 7 10 16 10 10 0 14 -7 12 -22 -4 -30 -47 -37 -65 -12 -18 24 -16 85
3 112 17 25 19 26 45 12z m-211 -55 c0 -30 5 -55 10 -55 6 0 10 25 10 55 0 42
3 55 15 55 12 0 15 -14 15 -70 l0 -69 -37 2 -38 2 -3 68 c-2 55 0 67 13 67 12
0 15 -12 15 -55z"/>
<path d="M780 6855 c0 -25 5 -45 10 -45 6 0 10 20 10 45 0 25 -4 45 -10 45 -5
0 -10 -20 -10 -45z"/>
<path d="M876 6891 c-4 -7 -5 -15 -2 -18 9 -9 19 4 14 18 -4 11 -6 11 -12 0z"/>
<path d="M1590 6965 c-37 -49 -40 -51 -58 -33 -20 20 -26 -1 -7 -22 10 -11 21
-20 25 -20 9 0 90 100 90 111 0 20 -18 7 -50 -36z"/>
<path d="M271 6909 c10 -33 19 -76 19 -95 0 -19 5 -34 10 -34 6 0 10 17 10 39
0 21 7 58 15 81 18 50 19 70 5 70 -6 0 -13 -13 -16 -30 -4 -16 -10 -30 -14
-30 -4 0 -10 14 -13 30 -4 17 -13 30 -21 30 -11 0 -11 -11 5 -61z"/>
<path d="M350 6901 c-24 -46 -5 -121 30 -121 24 0 40 28 40 70 0 42 -16 70
-40 70 -11 0 -24 -9 -30 -19z m40 -51 c0 -27 -4 -50 -10 -50 -5 0 -10 23 -10
50 0 28 5 50 10 50 6 0 10 -22 10 -50z"/>
<path d="M440 6851 l0 -69 35 1 35 1 0 68 c0 39 -4 68 -10 68 -5 0 -10 -20
-10 -44 0 -49 -7 -76 -21 -76 -5 0 -9 27 -9 60 0 33 -4 60 -10 60 -6 0 -10
-30 -10 -69z"/>
<path d="M1070 6910 c0 -5 20 -10 45 -10 25 0 45 5 45 10 0 6 -20 10 -45 10
-25 0 -45 -4 -45 -10z"/>
<path d="M30 6480 c-26 -26 -26 -74 0 -100 42 -42 113 -11 113 50 0 61 -71 92
-113 50z m75 -20 c7 -12 -16 -70 -27 -70 -13 0 -9 35 5 49 10 11 8 12 -10 6
-22 -6 -31 4 -16 18 10 11 41 8 48 -3z"/>
<path d="M810 6470 c0 -6 28 -10 65 -10 37 0 65 4 65 10 0 6 -28 10 -65 10
-37 0 -65 -4 -65 -10z"/>
<path d="M810 6430 c0 -6 28 -10 65 -10 37 0 65 4 65 10 0 6 -28 10 -65 10
-37 0 -65 -4 -65 -10z"/>
<path d="M810 6390 c0 -6 28 -10 65 -10 37 0 65 4 65 10 0 6 -28 10 -65 10
-37 0 -65 -4 -65 -10z"/>
<path d="M560 6240 c0 -25 4 -30 25 -30 21 0 25 5 25 30 0 25 -4 30 -25 30
-21 0 -25 -5 -25 -30z"/>
<path d="M620 6255 c0 -9 9 -15 25 -15 16 0 25 6 25 15 0 9 -9 15 -25 15 -16
0 -25 -6 -25 -15z"/>
<path d="M977 6252 c-22 -24 -21 -45 1 -65 24 -22 45 -21 65 1 22 24 21 45 -1
65 -24 22 -45 21 -65 -1z"/>
<path d="M107 6243 c-16 -16 -15 -19 15 -50 l32 -33 -29 -30 c-29 -30 -29 -30
-9 -50 20 -20 20 -20 69 30 l49 50 -49 50 c-27 28 -52 50 -55 50 -3 0 -13 -8
-23 -17z"/>
<path d="M365 6200 c-22 -23 -25 -30 -12 -30 12 0 17 -9 17 -30 0 -27 3 -30
30 -30 27 0 30 3 30 30 0 21 5 30 17 30 13 0 10 7 -12 30 -16 17 -32 30 -35
30 -3 0 -19 -13 -35 -30z"/>
<path d="M620 6200 c0 -25 4 -30 25 -30 21 0 25 5 25 30 0 25 -4 30 -25 30
-21 0 -25 -5 -25 -30z"/>
<path d="M560 6185 c0 -9 9 -15 25 -15 16 0 25 6 25 15 0 9 -9 15 -25 15 -16
0 -25 -6 -25 -15z"/>
<path d="M1043 6091 c-27 -23 -33 -35 -33 -68 0 -34 4 -42 23 -47 46 -12 56
-4 71 55 4 21 2 28 -13 32 -14 3 -17 11 -14 31 6 32 6 32 -34 -3z"/>
<path d="M330 6080 c0 -6 30 -10 70 -10 40 0 70 4 70 10 0 6 -30 10 -70 10
-40 0 -70 -4 -70 -10z"/>
<path d="M980 6020 c0 -22 5 -40 10 -40 6 0 10 18 10 40 0 22 -4 40 -10 40 -5
0 -10 -18 -10 -40z"/>
<path d="M193 5968 c-6 -7 -13 -25 -15 -40 -5 -26 -3 -28 28 -28 29 0 34 4 34
23 0 32 -33 63 -47 45z"/>
<path d="M90 5925 c0 -25 5 -45 10 -45 6 0 10 20 10 45 0 25 -4 45 -10 45 -5
0 -10 -20 -10 -45z"/>
<path d="M30 5915 c0 -19 5 -35 10 -35 6 0 10 16 10 35 0 19 -4 35 -10 35 -5
0 -10 -16 -10 -35z"/>
<path d="M0 5905 c0 -14 5 -25 10 -25 6 0 10 11 10 25 0 14 -4 25 -10 25 -5 0
-10 -11 -10 -25z"/>
<path d="M60 5905 c0 -14 5 -25 10 -25 6 0 10 11 10 25 0 14 -4 25 -10 25 -5
0 -10 -11 -10 -25z"/>
<path d="M572 5900 c-27 -24 -32 -36 -32 -72 0 -24 -5 -49 -12 -56 -9 -9 8
-12 77 -12 69 0 86 3 77 12 -7 7 -12 30 -12 53 0 41 -8 56 -46 88 -19 16 -21
15 -52 -13z m66 -22 c7 -7 12 -31 12 -55 l0 -43 -45 0 -45 0 0 43 c0 47 13 67
45 67 12 0 26 -5 33 -12z"/>
<path d="M978 5901 c-10 -10 -18 -21 -18 -24 0 -4 36 -7 80 -7 44 0 80 3 80 8
0 10 -38 42 -50 42 -6 0 -10 -4 -10 -10 0 -5 -9 -10 -20 -10 -11 0 -20 5 -20
10 0 16 -23 11 -42 -9z"/>
<path d="M960 5840 c0 -13 7 -20 20 -20 13 0 20 7 20 20 0 13 -7 20 -20 20
-13 0 -20 -7 -20 -20z"/>
<path d="M1010 5840 c0 -16 7 -20 30 -20 23 0 30 4 30 20 0 16 -7 20 -30 20
-23 0 -30 -4 -30 -20z"/>
<path d="M1080 5840 c0 -13 7 -20 20 -20 13 0 20 7 20 20 0 13 -7 20 -20 20
-13 0 -20 -7 -20 -20z"/>
<path d="M962 5793 c5 -26 38 -29 38 -4 0 15 -6 21 -21 21 -14 0 -19 -5 -17
-17z"/>
<path d="M1010 5790 c0 -16 7 -20 30 -20 23 0 30 4 30 20 0 16 -7 20 -30 20
-23 0 -30 -4 -30 -20z"/>
<path d="M1080 5789 c0 -25 33 -22 38 4 2 12 -3 17 -17 17 -15 0 -21 -6 -21
-21z"/>
<path d="M585 5740 c3 -5 12 -10 20 -10 8 0 17 5 20 10 4 6 -5 10 -20 10 -15
0 -24 -4 -20 -10z"/>
<path d="M587 5583 c-4 -3 -2 -12 4 -20 8 -9 8 -17 0 -26 -14 -18 -2 -30 16
-16 9 8 17 8 26 0 18 -14 30 -2 16 16 -8 9 -8 17 0 26 14 18 2 30 -16 16 -9
-8 -17 -8 -26 0 -8 6 -17 8 -20 4z"/>
<path d="M1220 5335 c0 -8 7 -15 15 -15 8 0 15 7 15 15 0 8 -7 15 -15 15 -8 0
-15 -7 -15 -15z"/>
<path d="M1260 5335 c0 -10 11 -15 35 -15 24 0 35 5 35 15 0 10 -11 15 -35 15
-24 0 -35 -5 -35 -15z"/>
<path d="M94 5331 c11 -4 23 -16 27 -27 6 -16 8 -14 8 9 1 23 -3 27 -26 26
-23 0 -25 -2 -9 -8z"/>
<path d="M308 5313 c-34 -23 -38 -30 -38 -69 0 -37 3 -44 23 -49 58 -12 60
-11 78 35 17 44 17 45 -5 51 -21 6 -23 11 -11 42 10 23 -3 21 -47 -10z"/>
<path d="M30 5280 l0 -40 40 0 c37 0 40 2 39 28 -2 23 -2 24 -6 5 -3 -18 -11
-23 -34 -23 -25 0 -29 4 -29 29 0 23 5 31 23 34 19 4 18 4 -5 6 -26 1 -28 -2
-28 -39z"/>
<path d="M84 5298 l-19 -23 23 19 c21 18 27 26 19 26 -2 0 -12 -10 -23 -22z"/>
<path d="M1220 5295 c0 -8 7 -15 15 -15 8 0 15 7 15 15 0 8 -7 15 -15 15 -8 0
-15 -7 -15 -15z"/>
<path d="M1260 5295 c0 -10 11 -15 35 -15 24 0 35 5 35 15 0 10 -11 15 -35 15
-24 0 -35 -5 -35 -15z"/>
<path d="M220 5240 c0 -29 4 -40 15 -40 11 0 15 11 15 40 0 29 -4 40 -15 40
-11 0 -15 -11 -15 -40z"/>
<path d="M1220 5255 c0 -8 7 -15 15 -15 8 0 15 7 15 15 0 8 -7 15 -15 15 -8 0
-15 -7 -15 -15z"/>
<path d="M1260 5255 c0 -10 11 -15 35 -15 24 0 35 5 35 15 0 10 -11 15 -35 15
-24 0 -35 -5 -35 -15z"/>
<path d="M730 5050 c-11 -11 -20 -29 -20 -40 0 -11 9 -29 20 -40 11 -11 29
-20 40 -20 11 0 29 9 40 20 11 11 20 29 20 40 0 11 -9 29 -20 40 -11 11 -29
20 -40 20 -11 0 -29 -9 -40 -20z m50 -10 c0 -5 -4 -10 -10 -10 -5 0 -10 5 -10
10 0 6 5 10 10 10 6 0 10 -4 10 -10z m0 -45 c0 -14 -4 -25 -10 -25 -5 0 -10
11 -10 25 0 14 5 25 10 25 6 0 10 -11 10 -25z"/>
<path d="M1426 5061 c-4 -6 -10 -33 -13 -61 l-6 -50 42 0 c40 0 41 1 41 35 0
32 -2 35 -30 35 -30 0 -40 13 -20 25 6 4 18 1 27 -6 13 -11 15 -11 12 6 -5 22
-43 33 -53 16z"/>
<path d="M442 4783 c-5 -10 -12 -30 -16 -44 -4 -21 -2 -28 13 -32 14 -3 17
-11 13 -32 l-5 -28 37 29 c31 25 36 35 36 70 0 35 -4 43 -22 48 -36 9 -47 7
-56 -11z"/>
<path d="M209 4707 l-46 -82 48 -3 c27 -2 71 -2 98 0 l48 3 -46 82 c-25 46
-48 83 -51 83 -3 0 -26 -37 -51 -83z m80 -17 l22 -40 -51 0 -51 0 22 40 c13
22 26 40 29 40 3 0 16 -18 29 -40z"/>
<path d="M530 4750 c0 -22 5 -40 10 -40 6 0 10 18 10 40 0 22 -4 40 -10 40 -5
0 -10 -18 -10 -40z"/>
<path d="M1193 4771 c-33 -27 -30 -67 3 -75 30 -8 38 -2 49 32 4 15 2 24 -9
28 -8 3 -12 12 -9 20 7 19 -8 17 -34 -5z"/>
<path d="M1142 4730 c0 -14 2 -19 5 -12 2 6 2 18 0 25 -3 6 -5 1 -5 -13z"/>
<path d="M50 4505 c0 -20 -5 -25 -25 -25 -16 0 -25 -6 -25 -15 0 -9 9 -15 25
-15 20 0 25 -5 25 -25 0 -16 6 -25 15 -25 9 0 15 9 15 25 0 20 5 25 25 25 16
0 25 6 25 15 0 9 -9 15 -25 15 -20 0 -25 5 -25 25 0 16 -6 25 -15 25 -9 0 -15
-9 -15 -25z"/>
<path d="M850 4510 c-10 -19 -8 -20 40 -20 48 0 50 1 40 20 -7 13 -21 20 -40
20 -19 0 -33 -7 -40 -20z m70 0 c0 -5 -13 -10 -30 -10 -16 0 -30 5 -30 10 0 6
14 10 30 10 17 0 30 -4 30 -10z"/>
<path d="M1070 4505 c0 -23 3 -25 50 -25 47 0 50 2 50 25 0 23 -3 25 -50 25
-47 0 -50 -2 -50 -25z m70 5 c0 -5 -9 -10 -20 -10 -11 0 -20 5 -20 10 0 6 9
10 20 10 11 0 20 -4 20 -10z"/>
<path d="M842 4428 l3 -53 45 0 45 0 3 53 3 52 -51 0 -51 0 3 -52z"/>
<path d="M1070 4445 c0 -23 3 -25 50 -25 47 0 50 2 50 25 0 23 -3 25 -50 25
-47 0 -50 -2 -50 -25z m70 5 c0 -5 -9 -10 -20 -10 -11 0 -20 5 -20 10 0 6 9
10 20 10 11 0 20 -4 20 -10z"/>
<path d="M742 4228 c-16 -16 -15 -53 2 -68 8 -6 26 -10 40 -8 15 2 35 -6 53
-22 l28 -25 -25 28 c-16 18 -24 38 -22 53 2 14 -2 32 -8 40 -15 17 -52 18 -68
2z m63 -33 c0 -27 -3 -30 -30 -30 -21 0 -31 5 -33 18 -6 33 6 49 35 45 24 -3
28 -8 28 -33z"/>
<path d="M730 4032 c0 -4 18 -26 40 -47 l40 -39 42 41 c23 23 39 46 35 49 -4
4 -23 -8 -42 -26 l-35 -34 -33 32 c-33 32 -47 39 -47 24z"/>
<path d="M600 3769 c-7 -13 -17 -18 -27 -15 -9 4 -21 -1 -29 -11 -10 -15 -10
-21 3 -35 15 -16 15 -20 0 -35 -13 -15 -13 -21 -3 -36 8 -10 20 -15 29 -11 10
3 20 -2 27 -15 14 -27 46 -27 60 -1 8 14 17 19 30 15 23 -7 37 29 20 50 -10
12 -10 18 0 30 17 21 3 57 -20 50 -13 -4 -22 1 -30 15 -14 26 -46 26 -60 -1z
m55 -79 c0 -18 -6 -26 -23 -28 -24 -4 -38 18 -28 44 3 9 15 14 28 12 17 -2 23
-10 23 -28z"/>
<path d="M935 3710 l-49 -50 -28 27 c-22 21 -31 24 -40 15 -9 -9 -3 -21 26
-51 l38 -39 65 63 c37 35 62 68 59 74 -11 18 -19 14 -71 -39z"/>
<path d="M79 3723 c-18 -20 -24 -37 -21 -60 4 -40 32 -46 32 -8 0 18 5 25 20
25 15 0 20 -7 20 -25 0 -39 27 -31 32 10 3 28 -1 40 -22 60 -14 14 -28 25 -31
25 -3 0 -16 -12 -30 -27z"/>
<path d="M70 3514 c0 -11 -6 -15 -20 -11 -16 4 -20 0 -20 -19 0 -13 -5 -24
-12 -24 -9 0 -9 -3 0 -12 7 -7 12 -20 12 -29 0 -12 6 -16 20 -12 14 4 20 0 20
-11 0 -9 5 -16 10 -16 6 0 10 7 10 16 0 12 6 15 21 11 15 -4 19 -2 15 9 -3 7
1 19 8 26 11 10 11 15 0 26 -7 7 -11 19 -8 27 4 10 0 12 -15 8 -15 -4 -21 -1
-21 11 0 9 -4 16 -10 16 -5 0 -10 -7 -10 -16z m35 -59 c0 -22 -31 -33 -47 -17
-17 17 -1 44 24 40 15 -2 23 -10 23 -23z"/>
<path d="M206 3522 c-3 -5 1 -15 9 -22 14 -12 14 -15 0 -30 -9 -10 -12 -21 -7
-24 5 -3 15 1 22 9 12 14 15 14 30 0 10 -9 21 -12 24 -7 3 5 -1 15 -9 22 -14
12 -14 15 0 30 9 10 12 21 7 24 -5 3 -15 -1 -22 -9 -12 -14 -15 -14 -30 0 -10
9 -21 12 -24 7z"/>
<path d="M542 3482 c-13 -2 -28 -14 -34 -27 -6 -13 -20 -28 -32 -33 l-21 -11
22 0 c13 -1 29 9 39 24 9 14 25 25 35 25 19 0 35 16 22 22 -5 2 -18 2 -31 0z"/>
<path d="M460 3470 c0 -5 9 -10 20 -10 11 0 20 5 20 10 0 6 -9 10 -20 10 -11
0 -20 -4 -20 -10z"/>
<path d="M524 3419 c-3 -5 2 -10 10 -10 9 -1 21 -2 26 -3 6 -1 10 4 10 9 0 12
-39 15 -46 4z"/>
<path d="M1380 3235 c0 -30 5 -55 10 -55 6 0 10 25 10 55 0 30 -4 55 -10 55
-5 0 -10 -25 -10 -55z"/>
<path d="M1320 3225 c0 -25 5 -45 10 -45 6 0 10 20 10 45 0 25 -4 45 -10 45
-5 0 -10 -20 -10 -45z"/>
<path d="M1290 3215 c0 -19 5 -35 10 -35 6 0 10 16 10 35 0 19 -4 35 -10 35
-5 0 -10 -16 -10 -35z"/>
<path d="M1350 3215 c0 -19 5 -35 10 -35 6 0 10 16 10 35 0 19 -4 35 -10 35
-5 0 -10 -16 -10 -35z"/>
<path d="M1610 3105 c-8 -9 -10 -28 -6 -50 6 -32 10 -36 34 -33 51 6 53 98 2
98 -10 0 -23 -7 -30 -15z m37 -71 c-3 -3 -12 -4 -19 -1 -8 3 -5 6 6 6 11 1 17
-2 13 -5z"/>
<path d="M1723 3105 c-12 -9 -22 -29 -25 -49 -3 -28 0 -36 17 -40 77 -21 125
34 75 84 -24 24 -38 25 -67 5z m52 -15 c8 -12 -12 -40 -28 -40 -7 0 -7 4 1 12
17 17 15 33 -3 18 -8 -7 -15 -8 -15 -3 0 23 33 32 45 13z m-15 -60 c0 -5 -2
-10 -4 -10 -3 0 -8 5 -11 10 -3 6 -1 10 4 10 6 0 11 -4 11 -10z"/>
<path d="M535 3090 c-18 -20 -18 -21 3 -42 24 -24 43 -18 22 7 -10 12 -10 19
-2 27 7 7 12 16 12 20 0 14 -16 8 -35 -12z"/>
<path d="M256 3084 c-16 -15 -21 -69 -10 -98 11 -30 23 -16 26 32 l3 47 73 3
c109 4 88 32 -25 32 -34 0 -57 -5 -67 -16z"/>
<path d="M703 3058 c-27 -27 -34 -30 -48 -18 -26 22 -30 2 -5 -25 l24 -25 42
41 c24 23 41 46 38 51 -9 14 -18 9 -51 -24z"/>
<path d="M297 3045 c-19 -18 -22 -76 -7 -106 9 -16 22 -19 86 -19 72 0 75 1
85 28 10 26 6 88 -6 100 -3 4 -37 8 -74 10 -53 3 -71 1 -84 -13z m113 -54 c0
-7 -43 -31 -55 -31 -3 0 -5 16 -5 35 l0 36 30 -16 c17 -9 30 -19 30 -24z"/>
<path d="M1579 2990 l-24 -19 78 -1 c76 0 95 10 58 30 -32 16 -87 12 -112 -10z"/>
<path d="M627 2923 c-4 -3 0 -15 10 -25 15 -17 15 -19 0 -36 -22 -24 -9 -37
15 -15 17 15 19 15 36 0 24 -22 37 -9 15 15 -15 17 -15 19 0 36 22 24 9 37
-15 15 -17 -15 -19 -15 -36 0 -10 10 -22 14 -25 10z"/>
<path d="M1410 2910 c0 -6 -8 -10 -17 -8 -11 2 -17 -2 -15 -11 2 -8 -3 -18
-10 -23 -11 -6 -11 -10 0 -16 7 -5 12 -15 10 -23 -2 -8 3 -13 11 -11 8 2 18
-3 23 -10 6 -11 10 -11 16 0 5 7 15 12 23 10 8 -2 13 3 11 11 -2 8 3 18 10 23
11 6 11 10 0 16 -7 5 -12 15 -10 23 2 9 -4 13 -14 11 -10 -2 -18 2 -18 8 0 5
-4 10 -10 10 -5 0 -10 -5 -10 -10z m30 -36 c11 -12 10 -18 -3 -32 -16 -15 -18
-15 -34 0 -13 14 -14 20 -3 32 7 9 16 16 20 16 4 0 13 -7 20 -16z"/>
<path d="M389 2744 c-36 -39 -57 -48 -77 -32 -12 9 -11 6 3 -12 11 -14 20 -26
20 -27 1 -1 20 20 43 47 45 53 52 68 11 24z"/>
<path d="M530 2715 l-55 -55 58 -57 c54 -54 58 -57 74 -40 16 16 15 19 -22 57
l-39 40 38 39 c25 25 37 45 33 55 -11 27 -31 18 -87 -39z"/>
<path d="M703 2695 c0 -44 2 -61 4 -37 2 23 2 59 0 80 -2 20 -4 1 -4 -43z"/>
<path d="M727 2763 c-4 -3 -7 -22 -7 -41 0 -27 3 -33 16 -28 9 3 28 -1 44 -10
39 -24 60 -13 60 31 0 30 -3 35 -18 31 -10 -4 -27 1 -38 9 -20 15 -46 19 -57
8z"/>
<path d="M1130 2450 c0 -16 3 -30 8 -30 4 0 7 14 7 30 0 17 -3 30 -7 30 -5 0
-8 -13 -8 -30z"/>
<path d="M1180 2450 c0 -22 5 -30 18 -29 10 0 12 3 5 6 -7 2 -13 13 -13 23 0
10 6 21 13 23 7 3 5 6 -5 6 -13 1 -18 -7 -18 -29z"/>
<path d="M1238 2453 c5 -23 7 -25 10 -8 2 11 9 23 16 27 6 5 3 8 -10 8 -18 0
-20 -4 -16 -27z"/>
<path d="M1280 2456 c-6 -16 -8 -31 -5 -34 3 -4 9 5 12 18 6 22 7 23 14 4 5
-12 8 -14 8 -4 0 8 -3 22 -9 30 -7 11 -11 9 -20 -14z"/>
<path d="M21 2451 c-20 -13 -21 -132 -2 -154 19 -24 212 -25 232 -1 18 22 16
143 -2 155 -18 12 -210 11 -228 0z m139 -73 c0 -5 5 -6 10 -3 6 3 10 4 10 2 0
-9 -68 -45 -74 -40 -8 8 -8 58 0 66 8 8 54 -14 54 -25z"/>
<path d="M342 2368 l2 -73 4 60 c3 58 4 59 18 35 10 -16 13 -18 9 -5 -4 11
-10 28 -12 38 -12 40 -23 12 -21 -55z"/>
<path d="M445 2409 c-9 -17 -14 -33 -12 -36 3 -2 9 6 14 19 6 18 9 11 14 -37
l6 -60 1 73 c1 39 0 72 -3 72 -2 0 -12 -14 -20 -31z"/>
<path d="M863 2375 c0 -38 2 -55 4 -37 5 42 18 40 60 -5 19 -21 30 -29 24 -17
-5 11 -17 26 -25 34 -22 18 -20 33 9 60 14 13 23 25 20 28 -2 2 -16 -10 -30
-27 -34 -40 -53 -40 -58 2 -2 17 -4 1 -4 -38z"/>
<path d="M558 2359 c-1 -28 0 -53 5 -56 4 -2 7 21 7 51 0 70 -7 73 -12 5z"/>
<path d="M603 2403 c-25 -9 -14 -41 18 -52 18 -6 29 -16 27 -23 -6 -18 -39
-23 -49 -6 -6 9 -9 9 -9 1 0 -18 18 -26 46 -19 35 9 31 41 -6 55 -16 5 -30 15
-30 21 0 18 29 23 48 9 15 -13 16 -12 3 4 -14 17 -25 20 -48 10z"/>
<path d="M683 2355 c0 -33 2 -45 4 -27 2 18 2 45 0 60 -2 15 -4 0 -4 -33z"/>
<path d="M726 2394 c-18 -18 -20 -47 -6 -75 13 -24 43 -25 61 -1 11 14 11 15
-1 5 -23 -21 -49 -15 -56 12 -12 49 26 86 52 50 8 -10 14 -14 14 -9 0 14 -22
34 -36 34 -7 0 -20 -7 -28 -16z"/>
<path d="M1013 2399 c26 -15 21 -39 -9 -39 -22 0 -25 3 -21 23 6 21 6 21 -8 3
-8 -11 -15 -27 -15 -36 0 -33 59 -66 74 -41 4 5 -3 7 -14 4 -20 -5 -50 12 -50
28 0 5 15 9 34 9 19 0 37 4 40 8 7 12 -22 52 -37 52 -7 0 -4 -5 6 -11z"/>
<path d="M492 2365 c-2 -43 11 -65 38 -64 10 0 9 3 -5 8 -14 6 -22 21 -26 52
l-6 44 -1 -40z"/>
<path d="M1070 2355 c24 -56 24 -59 4 -79 -9 -9 -11 -16 -4 -16 6 0 18 16 26
35 16 38 18 58 5 36 -6 -10 -12 -4 -21 23 -6 19 -16 38 -21 41 -5 3 0 -15 11
-40z"/>
<path d="M1121 2393 c-1 -6 -4 -20 -7 -30 -5 -17 -5 -17 6 0 6 10 9 23 6 30
-3 9 -5 9 -5 0z"/>
<path d="M381 2355 c0 -5 5 -20 12 -33 l13 -23 13 27 c6 15 10 29 7 31 -2 2
-7 -6 -11 -18 l-7 -22 -14 24 c-7 13 -13 20 -13 14z"/>
<path d="M462 2187 c-28 -30 -28 -58 1 -85 29 -27 61 -28 87 -2 27 27 25 62
-3 88 -30 28 -58 28 -85 -1z m48 -27 c0 -10 8 -23 17 -29 25 -14 9 -25 -16
-11 -21 11 -30 60 -11 60 6 0 10 -9 10 -20z"/>
<path d="M310 2180 c0 -6 -8 -10 -17 -8 -11 2 -17 -2 -15 -11 2 -8 -3 -18 -10
-23 -11 -6 -11 -10 0 -16 7 -5 12 -15 10 -23 -2 -8 3 -13 11 -11 8 2 18 -3 23
-10 6 -11 10 -11 16 0 5 7 15 12 23 10 8 -2 13 3 11 11 -2 8 3 18 10 23 11 6
11 10 0 16 -7 5 -12 15 -10 23 2 9 -4 13 -14 11 -10 -2 -18 2 -18 8 0 5 -4 10
-10 10 -5 0 -10 -5 -10 -10z m30 -36 c11 -12 10 -18 -3 -32 -16 -15 -18 -15
-34 0 -13 14 -14 20 -3 32 7 9 16 16 20 16 4 0 13 -7 20 -16z"/>
<path d="M465 2015 c-14 -13 -25 -31 -25 -40 0 -21 44 -65 65 -65 21 0 65 44
65 65 0 21 -44 65 -65 65 -9 0 -27 -11 -40 -25z m65 -5 c13 -9 13 -12 -2 -24
-10 -7 -18 -20 -18 -29 0 -21 -26 -29 -41 -11 -10 12 -9 16 9 21 15 3 22 13
22 29 0 26 7 29 30 14z"/>
<path d="M23 1890 c0 -36 2 -50 4 -32 2 17 2 47 0 65 -2 17 -4 3 -4 -33z"/>
<path d="M40 1920 c0 -22 5 -30 18 -30 10 0 23 -5 29 -11 20 -20 53 0 53 32 0
26 -3 29 -24 23 -13 -3 -27 -1 -30 5 -4 6 -16 11 -27 11 -14 0 -19 -7 -19 -30z"/>
<path d="M0 1570 c0 -19 7 -20 90 -20 83 0 90 1 90 20 0 19 -7 20 -90 20 -83
0 -90 -1 -90 -20z"/>
<path d="M640 1520 c0 -5 20 -10 45 -10 25 0 45 5 45 10 0 6 -20 10 -45 10
-25 0 -45 -4 -45 -10z"/>
<path d="M0 1500 c0 -19 7 -20 90 -20 83 0 90 1 90 20 0 19 -7 20 -90 20 -83
0 -90 -1 -90 -20z"/>
<path d="M0 1430 c0 -19 7 -20 90 -20 83 0 90 1 90 20 0 19 -7 20 -90 20 -83
0 -90 -1 -90 -20z"/>
<path d="M254 1339 c-10 -17 13 -36 27 -22 12 12 4 33 -11 33 -5 0 -12 -5 -16
-11z"/>
<path d="M324 1339 c-10 -17 13 -36 27 -22 12 12 4 33 -11 33 -5 0 -12 -5 -16
-11z"/>
<path d="M394 1339 c-10 -17 13 -36 27 -22 12 12 4 33 -11 33 -5 0 -12 -5 -16
-11z"/>
<path d="M642 860 c-27 -24 -32 -36 -32 -72 0 -24 -5 -49 -12 -56 -9 -9 8 -12
77 -12 69 0 86 3 77 12 -7 7 -12 30 -12 53 0 41 -8 56 -46 88 -19 16 -21 15
-52 -13z"/>
<path d="M655 700 c3 -5 12 -10 20 -10 8 0 17 5 20 10 4 6 -5 10 -20 10 -15 0
-24 -4 -20 -10z"/>
<path d="M280 610 c0 -25 4 -30 25 -30 21 0 25 5 25 30 0 25 -4 30 -25 30 -21
0 -25 -5 -25 -30z"/>
<path d="M340 610 c0 -25 4 -30 25 -30 21 0 25 5 25 30 0 25 -4 30 -25 30 -21
0 -25 -5 -25 -30z"/>
<path d="M400 610 c0 -25 4 -30 25 -30 21 0 25 5 25 30 0 25 -4 30 -25 30 -21
0 -25 -5 -25 -30z"/>
<path d="M595 575 c-14 -13 -25 -33 -25 -45 0 -27 43 -70 70 -70 27 0 70 43
70 70 0 12 -11 32 -25 45 -13 14 -33 25 -45 25 -11 0 -32 -11 -45 -25z m61
-30 c14 -13 14 -17 0 -31 -15 -14 -17 -14 -32 0 -12 13 -13 18 -2 30 16 19 16
19 34 1z"/>
<path d="M280 540 c0 -25 4 -30 25 -30 21 0 25 5 25 30 0 25 -4 30 -25 30 -21
0 -25 -5 -25 -30z"/>
<path d="M340 540 c0 -25 4 -30 25 -30 21 0 25 5 25 30 0 25 -4 30 -25 30 -21
0 -25 -5 -25 -30z"/>
<path d="M400 540 c0 -25 4 -30 25 -30 21 0 25 5 25 30 0 25 -4 30 -25 30 -21
0 -25 -5 -25 -30z"/>
<path d="M280 356 c0 -2 6 -9 14 -15 10 -9 16 -8 26 4 11 13 8 15 -14 15 -14
0 -26 -2 -26 -4z"/>
<path d="M481 320 l-22 -40 51 0 51 0 -22 40 c-13 22 -26 40 -29 40 -3 0 -16
-18 -29 -40z m43 -5 c4 -10 -1 -15 -14 -15 -13 0 -18 5 -14 15 4 8 10 15 14
15 4 0 10 -7 14 -15z"/>
<path d="M700 330 c0 -16 2 -30 5 -30 11 0 55 24 55 30 0 6 -44 30 -55 30 -3
0 -5 -13 -5 -30z"/>
<path d="M10 130 c0 -6 28 -10 65 -10 37 0 65 4 65 10 0 6 -28 10 -65 10 -37
0 -65 -4 -65 -10z"/>
<path d="M10 90 c0 -6 28 -10 65 -10 37 0 65 4 65 10 0 6 -28 10 -65 10 -37 0
-65 -4 -65 -10z"/>
<path d="M10 50 c0 -6 28 -10 65 -10 37 0 65 4 65 10 0 6 -28 10 -65 10 -37 0
-65 -4 -65 -10z"/>
</g>
</svg>
